<svg id="visual" viewBox="0 0 900 450" width="900" height="450" xmlns="http://www.w3.org/2000/svg" xmlns:xlink="http://www.w3.org/1999/xlink" version="1.1">
	<rect x="0" y="0" width="100%" height="100%" fill="#1c1c1c">
	</rect>
	<path d="M0 320L13.7 322.7C27.3 325.3 54.7 330.7 82 331.8C109.3 333 136.7 330 163.8 328.2C191 326.3 218 325.7 245.2 327.7C272.3 329.7 299.7 334.3 327 339.7C354.3 345 381.7 351 409 354C436.3 357 463.7 357 491 357C518.3 357 545.7 357 573 352.7C600.3 348.3 627.7 339.7 654.8 334.8C682 330 709 329 736.2 331.8C763.3 334.7 790.7 341.3 818 344.3C845.3 347.3 872.7 346.7 886.3 346.3L900 346L900 451L886.3 451C872.7 451 845.3 451 818 451C790.7 451 763.3 451 736.2 451C709 451 682 451 654.8 451C627.7 451 600.3 451 573 451C545.7 451 518.3 451 491 451C463.7 451 436.3 451 409 451C381.7 451 354.3 451 327 451C299.7 451 272.3 451 245.2 451C218 451 191 451 163.8 451C136.7 451 109.3 451 82 451C54.7 451 27.3 451 13.7 451L0 451Z" fill="#7e0fa1" stroke-linecap="round" stroke-linejoin="miter">
	</path>
</svg>
